<svg width="355" height="240" fill="none" xmlns="http://www.w3.org/2000/svg"><path d="M273.981 116.748c-.102 53.065-43.207 96.002-96.273 95.892-53.065-.102-96.0015-43.208-95.8914-96.273.1101-53.0652 43.2074-96.0018 96.2724-95.8917 40.015.0762 75.796 24.949 89.812 62.4401.211.5674.414 1.1264.609 1.7023.889 2.5067 1.669 5.0643 2.346 7.6557 2.083 7.9946 3.134 16.2176 3.125 24.4746Z" fill="#EDEDFF"/><path d="M166.665 51.4878c-8.807-4.7594-19.326-5.1914-28.489-1.1687-3.98 1.7361-8.181 4.8441-9.51 10.4589 5.377-3.1758 12.33 1.8377 13.719 9.8831l-.322.0931c-.728 5.5724.898 11.6276 4.057 15.0829.474-3.1589 2.346-5.9282 5.09-7.5542 2.32-1.5244 4.886-2.6337 6.656-5.2506 2.1-3.108 2.634-7.6473 3.464-11.7885.83-4.1412 2.413-8.5958 5.335-9.7475v-.0085Z" fill="#1A0C70"/><path d="M136.126 101.6c-1.491 2.235-3.481 3.641-5.259 5.386-2.058 1.871-3.413 4.395-3.828 7.156-.229 1.948.127 3.921.076 5.886-.051 1.964-.703 4.183-2.041 4.666-2.109.762-3.726-3.159-5.894-3.43-1.728-.212-3.278 2.498-2.778 4.853.5 2.354 2.846 3.396 4.201 1.863 1.219 2.049.364 5.759-1.474 6.385-.195 1.288-.389 2.575-.576 3.862-4.632-3.243-9.315-6.538-13.253-11.28-4.379-5.234-7.0972-11.653-7.8001-18.445-.5082-5.454.2456-11.6956-2.2612-15.8876-2.0071-3.3621-5.4454-4.0989-8.5365-3.8872-.5674.0339-1.1348.1016-1.7022.1694 1.8293-5.4793 4.1412-10.7892 6.9274-15.8535.6267-.271 1.2111-.6352 1.7361-1.084 2.8794-2.4475 4.1582-7.3932 6.4955-10.8146.153-.2202.305-.4319.466-.6436 2.388-3.125 5.598-4.7256 8.689-6.2246 6.851-3.3282 13.905-6.6988 21.138-6.233l-2.058.1948c-2.405 6.7242-4.802 13.4569-7.215 20.181-.365 1.0332-.737 2.0664-1.11 3.0996-1.363 3.8279-2.769 7.9013-2.566 12.1865.127 2.5322 1.008 5.2422 2.685 6.1145 1.566.8045 3.269-.1863 4.784-1.1602.644-.4065 1.271-.813 1.914-1.228 2.295-1.4736 4.836-2.9895 7.258-2.0071 2.219.9061 3.862 3.921 4.167 7.1646.288 3.1588-.483 6.3261-2.194 9.002l.009.009ZM150.227 144.813c-6.699-4.124-13.406-8.248-20.105-12.381l.111-.296c-4.167 1.583-5.895 8.994-5.209 15.049.686 6.055 3.024 11.475 4.201 17.378 1.592 8.079.991 16.429-1.736 24.195 8.816-9.892 16.607-20.639 23.28-32.08.932-1.439 1.643-3.015 2.109-4.666.491-1.762.313-3.642-.491-5.285-.551-.813-1.288-1.465-2.16-1.922v.008Z" fill="#1A0C70"/><path d="M123.779 69.7466c-.787 1.6937-.906 3.6161-.338 5.3861.66 1.4312 1.863 2.5406 3.336 3.0911l3.701 1.8377c1.228.6097 2.558 1.228 3.82.7283 1.516-.6097 2.566-2.981 2.295-5.1829-.288-2.3458-1.77-3.9633-3.134-5.3353l-5.742-5.7672-1.075 1.3211c-1.169 1.1348-2.134 2.4644-2.854 3.9295l-.009-.0084ZM254.13 94.8224c1.669.3895 3.328.7876 4.997 1.1772-.288 5.6234-3.083 10.8314-6.818 12.7204-1.558.787-3.294 1.075-4.581 2.54-1.169 1.33-1.762 3.405-2.304 5.386-.948 3.464-1.905 6.919-2.854 10.383-1.024 3.726-2.329 7.876-4.988 9.214-2.278 1.152-4.886-.254-6.639-2.625-1.753-2.372-2.82-5.556-3.862-8.664.068 3.388-1.507 6.707-3.743 7.885-2.236 1.177-4.954.11-6.445-2.516-1.075-1.888-1.524-4.378-2.574-6.283-1.051-1.914-3.261-3.007-4.413-1.211-.753 1.194-.66 3.023-1.033 4.539-.389 2.066-2.041 3.65-4.116 3.963-1.88-.042-3.667-.855-4.928-2.252-3.295-3.363-5.437-7.69-6.123-12.348-.466-2.236-.407-4.539.169-6.75.661-2.091 2.261-3.7 3.845-3.302 1.042-2.202-1.016-5.124-2.871-4.87-1.863.254-3.32 2.253-4.844 3.786-1.525 1.532-3.65 2.642-5.183 1.126.068 1.16-.813 2.151-1.965 2.227h-.169c-1.016-.296-1.965-.796-2.778-1.473-3.506-2.185-7.961-.737-10.459 3.404 1.558-6.631 3.845-14.2443 8.63-15.8025 1.956-.6437 4.09-.1101 5.936-1.2195 3.269-1.9648 3.938-9.3749 1.11-12.4322.364 2.8879.288 6.2669-1.237 8.2401-1.524 1.9817-4.725.686-4.539-2.2357-.11 1.0755-1.075 1.8546-2.151 1.7445-.627-.0677-1.177-.4234-1.49-.9654-1.017-1.5498-.932-4.082-.212-5.9281.745-1.6769 1.804-3.1843 3.133-4.4461 2.549-2.7354 5.141-5.5047 8.096-7.2239 2.964-1.7191 6.377-2.3035 9.341-.5928 1.567.9062 2.939 2.4051 4.54 3.2012 1.575.9824 3.65.4912 4.624-1.084 0 0 .034-.0593.05-.0847 1.186-2.0833.627-5.1829 1.068-7.7828.787-4.607 5.394-6.758 7.952-3.7177-1.906-.4912-3.879 1.7699-4.116 4.5053-.246 2.7354 1.143 5.4962 2.989 6.3262 3.108 1.3719 6.149-2.0833 8.494-5.2845 2.448-3.3536 4.904-6.7073 7.36-10.0524.389-.5674.83-1.1094 1.313-1.6006 1.6-1.5583 4.124-1.6091 5.784-.1186 2.481 2.024 3.65 6.1822 5.682 9.0362 2.956 4.1581 7.376 5.1659 11.492 5.9704 3.066.5929 6.14 1.1941 9.214 1.8039 2.05 3.8109 3.837 7.7574 5.344 11.8054-5.632 2.5661-10.408 6.6988-13.77 11.9071l.042-.0254ZM270.847 92.2734c-.627 1.8546-.974 3.794-1.025 5.7587-2.633-3.2096-3.048-9.2394-1.321-13.406.889 2.5067 1.669 5.0558 2.346 7.6557v-.0084ZM264.048 159.482c-2.304 4.674-4.98 9.154-8.003 13.397-1.931-.83-4.015.652-5.827 2.033-1.888 1.448-4.167 2.862-6.106 1.541-1.982-1.355-2.625-5.141-1.99-8.147.72-2.769 1.99-5.369 3.718-7.656 1.609-2.405 3.336-4.903 5.581-5.843 2.244-.932 5.132.389 5.784 3.582l1.592-.051c-.889-1.228-.424-3.76.771-4.209 1.38-.525 2.583 1.372 3.396 3.049.364.754.736 1.524 1.084 2.295v.009Z" fill="#1A0C70"/><path d="M203.123 136.785c-3.421.212-6.131-3.997-7.927-8.138-1.795-4.142-3.438-8.876-6.529-10.984-1.762-1.203-3.769-1.372-5.683-1.957-2.201-.559-3.997-2.134-4.827-4.251l-2.168-.872c-3.032 1.516-5.809 3.497-8.231 5.869-2.77 2.938-4.489 6.707-4.904 10.73-.415 4.344 1.118 9.18 3.972 10.814 2.261 1.287 4.887.474 7.173 1.66 2.863 1.474 4.556 5.759 5.2 9.985.644 4.226.483 8.621.94 12.898.457 4.276 1.728 8.722 4.344 10.916 3.278 2.744 8.097.466 9.57-4.531.72-2.447.695-5.208 1.237-7.749.948-4.471 3.514-7.791 5.555-11.467 2.041-3.675 3.642-8.655 2.287-12.914l-.009-.009ZM169.341 92.8068c.322.2964.618.6098.889.9485.576.9993.559 2.2273-.05 3.2096.83-.0508 1.609-.4403 2.134-1.084.626-.7113 1.177-1.482 1.634-2.3035.441-.5674.618-1.3041.483-2.0155-.161-.4573-.542-.6606-.813-1.0078-.373-.6775-.627-1.4143-.745-2.1765-.305-1.4566-1.406-2.6168-2.846-2.9979l.17.0339c-.602.3557-.907 1.0501-.763 1.7276.102.669.534 1.228.492 1.9139-.06.9824-1.042 1.4482-1.11 2.4306-.008.4912.178.9739.517 1.3296l.008-.0085ZM163.48 76.0896h.017c.102-.1016.204-.2033.288-.3134l-.305.3134Z" fill="#1A0C70"/><path d="M164.506 80.705c.838-.7368 1.194-1.8716.931-2.9556-.245-1.1179-1.126-1.8716-1.939-1.6599-.474.4827-1.169.686-1.838.542-.499-.127-1.05-.4573-1.49-.0847-.246.2795-.424.6182-.508.9909-.161.4912-.322.9908-.483 1.482-.076.1778-.093.3726-.059.5589.059.1525.203.2626.364.288.965.2879 1.931.5674 2.896.8553.669.3133 1.448.3049 2.117-.0169h.009ZM237.396 144.441c-.449-.728-.89-1.465-1.338-2.194-.441-.846-1.042-1.6-1.762-2.218-.661-.551-1.651-.466-2.202.194l-.025.026.051.415c1.194 1.279 2.007 2.871 2.354 4.59.101.745.068 1.516.152 2.269.017.703.314 1.372.83 1.855.703.466 1.525-.22 2.024-1.067.449-.694.644-1.516.568-2.337-.11-.551-.339-1.076-.661-1.533h.009ZM244.399 145.398c.085-.686.026-1.381-.161-2.041-.034-.898.204-1.779.678-2.541.474-.72.83-1.499 1.058-2.329.094-.372.077-.77-.05-1.143-.144-.33-.508-.483-.712-.22l.441.279c-.593-.101-1.203-.076-1.779.085-.669.254-1.177.821-1.355 1.524-.076.534-.195 1.067-.355 1.584-.263.542-.771.72-1.084 1.194-.441.855-.424 1.872.042 2.702.398.669 1.033 1.177 1.787 1.405.533.195 1.245.204 1.49-.499ZM256.874 149.158c.195.508.458.982.771 1.414.593.602 1.406.229 2.134.085 1.338-.212 2.685.33 3.506 1.406-.567-2.846-2.481-5.234-5.132-6.403-1.694-.584-3.489-.863-5.284-.83l-.305.077c.779 2.278 3.235 2.227 4.31 4.243v.008ZM204.063 153.808l.093-.161-.093.161ZM202.166 157.466c-.415.745-.771 1.524-1.059 2.329-.39 1.304-.644 2.634-.771 3.989-.093.77-.127 1.753.356 2.125.288.187.669.136.898-.118.271-.28.482-.61.652-.966.948-1.634 1.685-3.37 2.185-5.191.525-1.922.398-3.972-.356-5.818-.635 1.219-1.262 2.43-1.897 3.65h-.008ZM183.925 59.9227c.618.6013 1.524.7791 2.32.4489.805-.3557 1.542-.8385 2.185-1.4397.534-.3896.983-.8808 1.321-1.4482.381-.6775.483-1.482.271-2.2273-.305-.7198-.957-1.2364-1.727-1.3634-1.076-.3219-2.143-.6352-3.218-.957l.779-.7029c-.796-.4319-1.677.3641-2.177 1.3465-.322.6436-.542 1.3296-.66 2.0325-.348 1.499-.009 3.0657.906 4.2937v.0169ZM202.843 53.5711c.627.6944 1.685.7791 2.414.1948.609-.4573.999-1.1602 1.067-1.9224.076-.8469-.339-1.7785-.94-1.8547l.135-.7876c-1.143-.2032-2.557-.2456-3.176 1.1433-.423 1.084-.237 2.312.492 3.2266h.008Z" fill="#1A0C70"/><path d="M286.266 230.089c-5.288-2.415-10.995-5.264-17.112-8.544-31.653-16.963-70.577-43.42-109.601-74.5-39.023-31.081-73.4851-63.076-97.038-90.0841-11.4722-13.159-19.7349-24.4273-24.5627-33.4912-5.1072-9.5971-6.1395-16.39842-3.0652-20.21575 5.9953-7.43304 25.5138-.73927 40.8311 6.18748l-.559 1.22317C54.1261 1.15262 40.1972-1.18168 35.9464 4.09179 30.5326 10.808 40.5894 29.7557 63.5383 56.0783 87.0371 83.0281 121.436 114.96 160.401 145.996c38.96 31.032 77.812 57.444 109.398 74.366 30.842 16.529 51.64 22.156 57.059 15.44 4.494-5.578-1.637-19.624-17.269-39.553l1.068-.825c11.359 14.481 23.575 33.388 17.26 41.22-3.074 3.818-9.98 4.297-20.515 1.434-6.008-1.631-13.077-4.306-21.123-7.984l-.013-.005Z" fill="#16D886"/><path d="M83.9876 138.756c-14.5503-6.737-27.8498-13.505-39.4982-20.128-15.2252-8.657-26.7925-16.599-34.3916-23.6021C2.05774 87.6145-1.20866 81.4852.397546 76.8146 3.52447 67.7135 24.1307 67.4961 40.8676 68.9231l-.1125 1.3545c-22.9863-1.9525-36.8662.5255-39.07979 6.9855-2.82548 8.2268 13.02059 22.8729 43.47549 40.1919 31.1837 17.731 74.2952 36.526 121.3962 52.921 47.098 16.399 92.53 28.431 127.934 33.886 34.572 5.323 56.024 3.66 58.845-4.562 2.344-6.832-8.162-18.134-29.578-31.834l.725-1.146c15.562 9.953 33.424 23.833 30.131 33.428-1.607 4.671-7.932 7.462-18.802 8.295-10.272.784-24.242-.168-41.523-2.831-35.481-5.464-80.999-17.518-128.173-33.94-29.591-10.302-57.625-21.555-82.1184-32.898v-.018Z" fill="#16D886"/><path d="M123.272 19.3559c1.31-8.0701-4.17-15.67407-12.24-16.98402-8.07-1.30996-15.6744 4.17018-16.9843 12.24022-1.31 8.0701 4.1702 15.6741 12.2403 16.984 8.07 1.31 15.674-4.1702 16.984-12.2402Z" fill="#807DFF"/><path d="M305.062 164.123c5.004 0 9.061-4.057 9.061-9.061 0-5.005-4.057-9.062-9.061-9.062-5.005 0-9.062 4.057-9.062 9.062 0 5.004 4.057 9.061 9.062 9.061Z" fill="#088752"/><path d="M57.5 190c13.531 0 24.5-10.969 24.5-24.5S71.031 141 57.5 141 33 151.969 33 165.5 43.969 190 57.5 190Z" fill="#46ECA6"/></svg>