<svg width="598" height="567" fill="none" xmlns="http://www.w3.org/2000/svg"><path d="m328.837 441.802 4.496 10.071c-3.656-.581-7.053 2.538-7.13 6.542-.078 4.005 3.184 8.17 6.84 8.739-.7 3.109-3.713 4.481-6.332 5.735-2.619 1.254-5.44 3.341-5.243 6.657.155 2.662 2.359 5.009 4.698 5.952 2.339.943 4.792.798 7.162.642-3.588 3.751-3.941 10.801-.788 15.857 3.153 5.056 9.449 7.548 14.163 5.6-3.329 4.139-2.608 11.718 1.525 15.986 4.164 4.305 10.206 4.725 15.485 4.269 13.443-1.135 26.252-6.206 36.827-14.578 4.034-3.201 7.805-6.972 10.107-11.883 2.303-4.911 2.982-11.138.835-16.727.581 7.003 7.598 12.536 13.914 12.847 6.317.311 11.83-3.243 16.513-7.294 6.228-5.387 12-12.94 11.145-22.26-.426-4.61-2.443-9.05-4.419-13.349l-3.838-8.33c-1.55-3.362-3.132-6.786-5.461-9.604-2.328-2.818-5.564-5.01-8.8-4.989.741-3.378 1.483-6.879.861-10.469-.623-3.59-2.998-7.305-6.224-8.144-4.112-1.067-7.592 2.72-11.731 2.362-3.977-.341-7.265-4.33-11.129-5.91-3.251-1.404-7.022-.751-9.615 1.663-2.448 2.388-3.469 6.423-2.593 10.241.768 3.346 2.816 6.294 4.061 9.516 1.245 3.222 1.436 7.372-.954 9.133-2.884 2.124-7.266-.767-9.522-4.263-2.256-3.497-3.542-7.734-6.389-10.677-3.361-3.471-8.619-4.289-12.078-1.87-3.46 2.419-4.782 7.833-3.039 12.433 1.426 3.761 4.693 7.568 3.557 11.111-1.198 3.746-6.436 3.269-9.599.622-3.164-2.647-5.259-6.636-8.381-9.34-3.169-2.751-7.312-3.953-10.948-3.186-3.749.87-6.793 3.585-8.074 7.211" fill="#16D886"/><path d="m401.649 413.497-9.329 4.331c-1.401.694-2.993.906-4.528.611-1.353-.321-2.271-1.145-2.51-2.269l-2.173-10.127c-.409-1.912 1.172-4.17 3.765-5.378l5.155-2.393c2.593-1.202 5.342-.953 6.54.591l6.348 8.19c.705.906.746 2.139.119 3.382-.762 1.363-1.955 2.44-3.387 3.067v-.005Z" fill="#1A0C70"/><g filter="url(#a)"><path d="M112.309 226.277c8.775-23.985 22.461-45.872 40.192-64.267 15.045-15.598 38.454-14.95 38.454-14.95l.135-.166c11.518-14.189 30.437-20.094 47.997-14.976 2.23.642 3.947.922 4.766.637 14.889-5.206 14.189-16.95 27.035-26.414 22.492-16.5721 97.088 2.408 107.605 32.9 8.526 24.71 46.582 36.692 60.802 55.594 2.225 2.958 4.403 5.947 6.545 8.973 1.001 1.403 1.996 2.818 2.976 4.247 10.072 14.573 19.111 29.834 27.046 45.67 5.201 10.345 9.724 21.021 13.535 31.952 14.827 43.297 9.755 75.554-31.126 67.587-4.839-.948-9.564-1.792-14.169-2.538-6.669-1.088-13.11-1.979-19.318-2.684-8.354-.948-16.31-1.569-23.85-1.865-2.536-.103-5.026-.171-7.474-.207-36.131-.502-62.932 6.294-83.35 16.836-3.459 1.782-6.742 3.668-9.838 5.657-4.735 3.02-9.252 6.366-13.525 10.008-5.912 5.072-11.368 10.651-16.295 16.681l-.269.331c-23.882 29.181-31.739 61.48-48.35 67.168-71.013 24.316-115.924-63.832-120.529-150.057-.233-4.347-.363-8.677-.384-12.998-.015-1.932 0-3.859.026-5.776.073-5.009.296-9.987.664-14.909.14-1.88.301-3.75.482-5.61.203-2.005.42-3.999.675-5.983 1.804-14.531 4.968-28.352 9.552-40.836l-.01-.005Z" fill="#ABA8FF"/></g><path d="M332.405 273.718c-5.674 2.636-5.767 14.447-3.988 18.276l3.22 6.926 20.542-9.532-3.22-6.926c-1.784-3.828-10.881-11.371-16.554-8.744ZM277.205 373.189c-1.24 0-2.246-1.005-2.246-2.243 0-.264.047-.523.135-.772.202-.559.622-1.015 1.161-1.264l106.081-49.233c1.126-.523 2.458-.036 2.982 1.088.519 1.124.031 2.455-1.089 2.978l-106.081 49.234c-.295.14-.617.212-.943.212Z" fill="#1A0C70"/><path d="m360.186 293.811-30.322 14.072 47.407 101.923 30.322-14.072-47.407-101.923Z" fill="#fff"/><path d="M246.353 165.077c-5.674 2.636-5.767 14.453-3.988 18.276l3.22 6.926 20.542-9.532-3.22-6.926c-1.784-3.828-10.881-11.371-16.554-8.744ZM373.421 425.251l-9.329 4.331c-1.401.694-2.993.906-4.528.611-1.353-.321-2.271-1.145-2.51-2.269l-2.173-10.127c-.409-1.912 1.172-4.17 3.765-5.377l5.155-2.394c2.593-1.202 5.342-.953 6.54.591l6.348 8.19c.705.906.746 2.139.119 3.383-.763 1.362-1.955 2.439-3.387 3.066v-.005ZM344.732 439.471l-9.329 4.331c-1.401.694-2.993.906-4.528.611-1.353-.321-2.271-1.145-2.51-2.269l-2.173-10.128c-.409-1.911 1.172-4.17 3.765-5.377l5.155-2.393c2.593-1.202 5.342-.953 6.54.591l6.348 8.19c.705.906.746 2.139.119 3.382-.762 1.363-1.955 2.44-3.387 3.067v-.005Z" fill="#1A0C70"/><path d="m282.225 202.566-30.321 14.072 96.151 206.72 30.322-14.072-96.152-206.72Z" fill="#fff"/><path d="m313.689 309.125-3.402-7.481 1.96-.901 3.392 7.454 49.117 108.792-1.955.906M352.065 302.908l-3.402-7.48 1.96-.901 3.392 7.454 49.117 108.791-1.955.907" fill="#1A0C70"/><path d="m296.538 219.107-41.089 19.069c-2.614-4.067-10.502-24.897-8.733-31.077l-1.328-5.895 28.368-13.168 3.796 4.667c5.637 1.725 16.611 21.296 18.981 26.404h.005Z" fill="#fff"/><path d="m274.948 188.29-29.275 13.587c-1.079.503-2.23.316-2.572-.409-.047-.103-.078-.217-.088-.331l-1.515-16.147c-.067-.689.529-1.477 1.432-1.896l19.416-9.009c.903-.419 1.888-.368 2.376.13l11.378 11.567c.581.591.264 1.606-.706 2.264-.14.093-.285.176-.44.249l-.006-.005Z" fill="#fff"/><path d="M297.908 314.787c-.317 0-.633-.036-.939-.109-.882-.181-1.629-.761-2.023-1.57l-17.897-38.479c-.741-1.595.254-3.631 2.215-4.543l26.21-12.163c1.966-.912 4.164-.358 4.906 1.238l17.897 38.479c.363.824.322 1.767-.104 2.554-.461.881-1.203 1.58-2.11 1.989l-26.211 12.163c-.606.285-1.27.436-1.944.441Z" fill="#1A0C70"/><path d="m301.487 320.61-30.321 14.072 47.566 102.266 30.322-14.072-47.567-102.266Z" fill="#fff"/><path d="m264.136 189.973-8.894 4.129c-1.717.797-4.03-.529-5.16-2.958-1.131-2.43-.654-5.051 1.063-5.849l8.894-4.128c1.716-.798 4.029.528 5.16 2.958 1.131 2.429.653 5.05-1.063 5.848ZM274.306 300.246c-5.674 2.636-5.767 14.447-3.988 18.276l3.22 6.926 20.542-9.532-3.22-6.926c-1.784-3.828-10.881-11.371-16.554-8.744Z" fill="#1A0C70"/><path d="M180.101 276.665c-2.002 1.331-4.051-1.839-2.012-3.113 2.001-1.332 4.05 1.839 2.012 3.113ZM388.58 231.079c-2.002 1.331-4.05-1.839-2.012-3.114 2.002-1.331 4.05 1.839 2.012 3.114ZM246.482 267.34c-2.002 1.332-4.05-1.839-2.012-3.113 2.002-1.331 4.05 1.839 2.012 3.113ZM180.101 391.667c-2.002 1.332-4.051-1.839-2.012-3.113 2.001-1.331 4.05 1.839 2.012 3.113ZM282.266 132.135c-2.002 1.332-4.05-1.839-2.012-3.113 2.002-1.332 4.05 1.839 2.012 3.113ZM183.731 193.263c-2.002 1.331-4.05-1.839-2.012-3.114 2.002-1.331 4.05 1.839 2.012 3.114Z" fill="#16D886"/><path d="m325.456 175.738-1.276-.28.28-1.274-.851-.187-.28 1.274-1.27-.279-.187.849 1.271.28-.275 1.274.845.187.28-1.275 1.276.28.187-.849ZM117.961 281.819l-1.27-.279.275-1.275-.846-.186-.28 1.274-1.275-.28-.187.85 1.276.28-.28 1.274.85.187.28-1.275 1.271.28.186-.85Z" fill="#fff"/><path d="M379.282 335.933c-2.21 1.02-4.828.067-5.855-2.14l-5.243-11.277c-1.022-2.207-.063-4.823 2.147-5.849 2.204-1.02 4.823-.067 5.849 2.134l5.244 11.278c1.021 2.207.067 4.823-2.142 5.848v.006ZM290.081 377.375c-2.209 1.02-4.828.067-5.855-2.14l-5.243-11.277c-1.027-2.207-.067-4.823 2.142-5.849 2.209-1.025 4.828-.067 5.855 2.14l5.243 11.277c1.022 2.207.068 4.823-2.142 5.849Z" fill="#1A0C70"/><path d="m371.202 311.295-35.167 16.318c-2.24-3.481-8.987-21.306-7.473-26.595l.742-5.916 20.998-10.288 4.652 3.89c6.555-2.212 16.191 14.013 16.243 22.596l.005-.005Z" fill="#fff"/><path d="m354.876 310.166-8.894 4.129c-1.716.797-4.325-1.166-5.819-4.378-1.493-3.211-1.312-6.47.405-7.262l8.894-4.129c1.717-.798 4.325 1.165 5.819 4.377 1.493 3.212 1.312 6.47-.405 7.263ZM279.461 331.4l-3.402-7.48 1.96-.902 3.392 7.455 49.117 108.791-1.955.906" fill="#1A0C70"/><path d="m313.103 337.818-35.167 16.318c-5.186-2.673-13.116-20.182-7.473-26.595l.741-5.916 20.999-10.288 4.652 3.89c4.823 1.476 14.215 18.224 16.242 22.596l.006-.005Z" fill="#fff"/><path d="m296.051 335.135-8.894 4.129c-1.717.797-4.165-.819-5.456-3.601-1.291-2.781-.949-5.688.767-6.485l8.894-4.129c1.717-.798 4.165.818 5.456 3.6 1.292 2.782.949 5.688-.767 6.486Z" fill="#1A0C70"/><g filter="url(#b)"><path d="M117.832 259.472c29.501 0 53.416-23.889 53.416-53.357s-23.915-53.357-53.416-53.357c-29.5012 0-53.4165 23.889-53.4165 53.357s23.9153 53.357 53.4165 53.357Z" fill="#84F2C4"/></g><g filter="url(#c)"><path d="m336.849 261.689 32.46-94.701-35.644 93.566c-.612.772-.482 1.891.291 2.508.772.616 1.893.481 2.51-.29.243-.306.378-.689.383-1.083Z" fill="#46ECA6"/></g><path d="M419.593 205.244c-6.353 2.109-13.401 4.181-21.133 6.217-40.011 10.521-93.634 18.727-151.002 23.109-57.369 4.383-111.62 4.414-152.7609.088-20.0441-2.108-35.8927-5.134-47.1153-9.003-11.8812-4.093-18.1253-9.029-18.5557-14.666-.8401-10.982 20.8531-20.648 39.2014-26.823l.4979 1.471c-25.1991 8.48-38.7451 17.442-38.1487 25.233.7572 9.926 24.1878 18.033 64.2864 22.244 41.0529 4.316 95.2059 4.279 152.4799-.093 57.275-4.377 110.801-12.567 150.723-23.062 38.983-10.252 60.91-21.825 60.153-31.75-.633-8.237-16.891-15.287-45.783-19.846l.244-1.533c20.993 3.315 46.203 9.692 47.089 21.265.431 5.636-4.989 11.464-16.107 17.312-6.338 3.336-14.392 6.626-24.064 9.837h-.005ZM435.291 299.878c3.065 0 5.549-2.482 5.549-5.543s-2.484-5.543-5.549-5.543c-3.064 0-5.549 2.482-5.549 5.543s2.485 5.543 5.549 5.543ZM470.556 450.106c3.065 0 5.549-2.482 5.549-5.543s-2.484-5.543-5.549-5.543c-3.064 0-5.549 2.482-5.549 5.543s2.485 5.543 5.549 5.543Z" fill="#16D886"/><path d="M281.265 483.866c5.978 0 10.823-4.84 10.823-10.811s-4.845-10.812-10.823-10.812c-5.977 0-10.823 4.841-10.823 10.812 0 5.971 4.846 10.811 10.823 10.811Z" fill="#84F1C4"/><path d="M198.807 340.802c3.065 0 5.549-2.482 5.549-5.543s-2.484-5.543-5.549-5.543c-3.065 0-5.549 2.482-5.549 5.543s2.484 5.543 5.549 5.543Z" fill="#807DFF"/><path d="m385.401 348.018 23.944 6.191 14.687 28.818-24.831.974-13.8-35.983Z" fill="#fff"/><path d="m330.128 306.472 13.178 13.174 33.476 72.296-6.166 5.315-40.488-90.785ZM301.47 318.413l1.032 18.597 31.594 73.13 8.08-1.036-40.706-90.691Z" fill="#ABA8FF"/><path d="m300.604 393.537-12.897 21.084 9.511 30.911 18.519-16.551-15.133-35.444Z" fill="#fff"/><path d="M414.531 406.493c-6.695 0-14.033-.254-22.02-.756-41.286-2.621-94.77-11.723-150.592-25.637-55.823-13.914-107.315-30.973-144.9972-48.037-18.3534-8.314-32.4439-16.183-41.8722-23.389-9.9831-7.63-14.3498-14.277-12.9755-19.763 2.6708-10.687 26.3089-13.023 45.6684-13.106v1.554c-26.5837.109-42.2663 4.347-44.1593 11.925-2.4115 9.656 17.2644 24.731 53.9817 41.36 37.5991 17.027 88.9981 34.055 144.7271 47.948 55.735 13.894 109.115 22.98 150.313 25.596 40.233 2.554 64.691-1.523 67.102-11.179 2.002-8.019-11.202-19.83-37.179-33.257l.716-1.378c18.877 9.759 40.788 23.751 37.972 35.013-1.369 5.486-8.354 9.304-20.754 11.355-7.069 1.171-15.75 1.756-25.941 1.756l.01-.005Z" fill="#16D886"/><defs><filter id="a" x=".914062" y="0" width="596.089" height="566.552" filterUnits="userSpaceOnUse" color-interpolation-filters="sRGB"><feFlood flood-opacity="0" result="BackgroundImageFix"/><feBlend in="SourceGraphic" in2="BackgroundImageFix" result="shape"/><feGaussianBlur stdDeviation="50" result="effect1_foregroundBlur_58_2793"/></filter><filter id="b" x="44.4155" y="132.758" width="146.833" height="146.714" filterUnits="userSpaceOnUse" color-interpolation-filters="sRGB"><feFlood flood-opacity="0" result="BackgroundImageFix"/><feBlend in="SourceGraphic" in2="BackgroundImageFix" result="shape"/><feGaussianBlur stdDeviation="10" result="effect1_foregroundBlur_58_2793"/></filter><filter id="c" x="329.279" y="162.988" width="44.0297" height="104.461" filterUnits="userSpaceOnUse" color-interpolation-filters="sRGB"><feFlood flood-opacity="0" result="BackgroundImageFix"/><feBlend in="SourceGraphic" in2="BackgroundImageFix" result="shape"/><feGaussianBlur stdDeviation="2" result="effect1_foregroundBlur_58_2793"/></filter></defs></svg>